REM DIRINDEX 1\2\3,1\2\4,1\2\5,1\2\6
REM DIRNAME folder01,folder02,folder03,folder04,folder05,folder06
TITLE ""
FILE "137 137.mp3" MP3
  TRACK 01 AUDIO
    TITLE "0:"
    INDEX 01 00:00:00
  TRACK 02 AUDIO
    TITLE "3:cjc157_5129"
    INDEX 01 00:00:09
  TRACK 03 AUDIO
    TITLE "0:"
    INDEX 01 00:01:44
  TRACK 04 AUDIO
    TITLE "4:cjc157_5130"
    INDEX 01 00:02:18
  TRACK 05 AUDIO
    TITLE "0:"
    INDEX 01 00:03:33
  TRACK 06 AUDIO
    TITLE "5:cjc157_5131"
    INDEX 01 00:04:07
  TRACK 07 AUDIO
    TITLE "0:"
    INDEX 01 00:06:18
  TRACK 08 AUDIO
    TITLE "5:cjc157_5132"
    INDEX 01 00:06:65
  TRACK 09 AUDIO
    TITLE "0:"
    INDEX 01 00:08:46
  TRACK 10 AUDIO
    TITLE "3:cjc157_5133"
    INDEX 01 00:09:16
  TRACK 11 AUDIO
    TITLE "0:"
    INDEX 01 00:10:45
  TRACK 12 AUDIO
    TITLE "4:cjc157_5134"
    INDEX 01 00:11:15
  TRACK 13 AUDIO
    TITLE "0:"
    INDEX 01 00:12:42
  TRACK 14 AUDIO
    TITLE "5:cjc157_5135"
    INDEX 01 00:13:12
  TRACK 15 AUDIO
    TITLE "0:"
    INDEX 01 00:15:42
  TRACK 16 AUDIO
    TITLE "5:cjc157_5136"
    INDEX 01 00:16:14
  TRACK 17 AUDIO
    TITLE "0:"
    INDEX 01 00:19:03
  TRACK 18 AUDIO
    TITLE "5:cjc157_5137"
    INDEX 01 00:19:42
  TRACK 19 AUDIO
    TITLE "0:"
    INDEX 01 00:22:13
  TRACK 20 AUDIO
    TITLE "3:cjc157_5138"
    INDEX 01 00:22:56
  TRACK 21 AUDIO
    TITLE "0:"
    INDEX 01 00:24:24
  TRACK 22 AUDIO
    TITLE "4:cjc157_5139"
    INDEX 01 00:24:69
  TRACK 23 AUDIO
    TITLE "0:"
    INDEX 01 00:26:03
  TRACK 24 AUDIO
    TITLE "5:cjc157_5140"
    INDEX 01 00:26:52
  TRACK 25 AUDIO
    TITLE "0:"
    INDEX 01 00:28:53
  TRACK 26 AUDIO
    TITLE "5:cjc157_5141"
    INDEX 01 00:29:25
  TRACK 27 AUDIO
    TITLE "0:"
    INDEX 01 00:31:49
  TRACK 28 AUDIO
    TITLE "3:cjc157_5142"
    INDEX 01 00:32:25
  TRACK 29 AUDIO
    TITLE "0:"
    INDEX 01 00:33:56
  TRACK 30 AUDIO
    TITLE "4:cjc157_5143"
    INDEX 01 00:34:24
  TRACK 31 AUDIO
    TITLE "0:"
    INDEX 01 00:35:39
  TRACK 32 AUDIO
    TITLE "5:cjc157_5144"
    INDEX 01 00:36:17
  TRACK 33 AUDIO
    TITLE "0:"
    INDEX 01 00:38:00
  TRACK 34 AUDIO
    TITLE "3:cjc157_5145"
    INDEX 01 00:38:47
  TRACK 35 AUDIO
    TITLE "0:"
    INDEX 01 00:39:68
  TRACK 36 AUDIO
    TITLE "4:cjc157_5146"
    INDEX 01 00:40:38
  TRACK 37 AUDIO
    TITLE "0:"
    INDEX 01 00:41:65
  TRACK 38 AUDIO
    TITLE "5:cjc157_5147"
    INDEX 01 00:42:37
  TRACK 39 AUDIO
    TITLE "0:"
    INDEX 01 00:44:32
  TRACK 40 AUDIO
    TITLE "3:cjc157_5148"
    INDEX 01 00:45:20
  TRACK 41 AUDIO
    TITLE "0:"
    INDEX 01 00:46:25
  TRACK 42 AUDIO
    TITLE "4:cjc157_5149"
    INDEX 01 00:46:72
  TRACK 43 AUDIO
    TITLE "0:"
    INDEX 01 00:48:10
  TRACK 44 AUDIO
    TITLE "5:cjc157_5150"
    INDEX 01 00:48:55
  TRACK 45 AUDIO
    TITLE "0:"
    INDEX 01 00:50:52
  TRACK 46 AUDIO
    TITLE "3:cjc157_5151"
    INDEX 01 00:51:26
  TRACK 47 AUDIO
    TITLE "0:"
    INDEX 01 00:52:43
  TRACK 48 AUDIO
    TITLE "4:cjc157_5152"
    INDEX 01 00:53:11
  TRACK 49 AUDIO
    TITLE "0:"
    INDEX 01 00:54:29
  TRACK 50 AUDIO
    TITLE "5:cjc157_5153"
    INDEX 01 00:55:03
  TRACK 51 AUDIO
    TITLE "0:"
    INDEX 01 00:58:20
  TRACK 52 AUDIO
    TITLE "3:cjc157_5154"
    INDEX 01 00:58:67
  TRACK 53 AUDIO
    TITLE "0:"
    INDEX 01 01:00:04
  TRACK 54 AUDIO
    TITLE "4:cjc157_5155"
    INDEX 01 01:00:55
  TRACK 55 AUDIO
    TITLE "0:"
    INDEX 01 01:01:70
  TRACK 56 AUDIO
    TITLE "5:cjc157_5156"
    INDEX 01 01:02:44
  TRACK 57 AUDIO
    TITLE "0:"
    INDEX 01 01:05:58
  TRACK 58 AUDIO
    TITLE "3:cjc157_5157"
    INDEX 01 01:06:28
  TRACK 59 AUDIO
    TITLE "0:"
    INDEX 01 01:07:51
  TRACK 60 AUDIO
    TITLE "4:cjc157_5158"
    INDEX 01 01:08:17
  TRACK 61 AUDIO
    TITLE "0:"
    INDEX 01 01:09:42
  TRACK 62 AUDIO
    TITLE "5:cjc157_5159"
    INDEX 01 01:10:10
  TRACK 63 AUDIO
    TITLE "0:"
    INDEX 01 01:13:49
  TRACK 64 AUDIO
    TITLE "3:cjc157_5160"
    INDEX 01 01:14:25
  TRACK 65 AUDIO
    TITLE "0:"
    INDEX 01 01:15:50
  TRACK 66 AUDIO
    TITLE "4:cjc157_5161"
    INDEX 01 01:16:20
  TRACK 67 AUDIO
    TITLE "0:"
    INDEX 01 01:17:30
  TRACK 68 AUDIO
    TITLE "5:cjc157_5162"
    INDEX 01 01:18:06
  TRACK 69 AUDIO
    TITLE "0:"
    INDEX 01 01:19:74
